<?xml version="1.0" encoding="UTF-8" standalone="no"?>
<svg
   xmlns:dc="http://purl.org/dc/elements/1.1/"
   xmlns:cc="http://creativecommons.org/ns#"
   xmlns:rdf="http://www.w3.org/1999/02/22-rdf-syntax-ns#"
   xmlns:svg="http://www.w3.org/2000/svg"
   xmlns="http://www.w3.org/2000/svg"
   xmlns:sodipodi="http://sodipodi.sourceforge.net/DTD/sodipodi-0.dtd"
   xmlns:inkscape="http://www.inkscape.org/namespaces/inkscape"
   version="1.1"
   id="Layer_1"
   x="0px"
   y="0px"
   width="999.99994"
   height="185.12808"
   viewBox="-297.099 -279.453 999.99993 185.1281"
   enable-background="new -297.099 -279.453 1000 940.605"
   xml:space="preserve"
   sodipodi:docname="Kompas_TV_(2016)_logo.svg"
   inkscape:version="1.0.2 (e86c870879, 2021-01-15)"><metadata
   id="metadata83"><rdf:RDF><cc:Work
       rdf:about=""><dc:format>image/svg+xml</dc:format><dc:type
         rdf:resource="http://purl.org/dc/dcmitype/StillImage" /><dc:title /></cc:Work></rdf:RDF></metadata><defs
   id="defs81">
	
	
	
	
	
	
	
	
	
	
	
</defs><sodipodi:namedview
   pagecolor="#ffffff"
   bordercolor="#666666"
   borderopacity="1"
   objecttolerance="10"
   gridtolerance="10"
   guidetolerance="10"
   inkscape:pageopacity="0"
   inkscape:pageshadow="2"
   inkscape:window-width="1366"
   inkscape:window-height="705"
   id="namedview79"
   showgrid="false"
   inkscape:zoom="2.8284271"
   inkscape:cx="868.15337"
   inkscape:cy="101.04669"
   inkscape:window-x="-8"
   inkscape:window-y="-8"
   inkscape:window-maximized="1"
   inkscape:current-layer="Layer_1"
   inkscape:document-rotation="0" />

<g
   id="g650"
   transform="matrix(1.0537023,0,0,1.0537023,15.954898,15.007272)"><g
     id="g947"
     transform="matrix(0.18306211,0,0,0.18306211,-242.87258,-228.29574)"><path
       id="rect988-1-3"
       style="opacity:1;fill:#0c7fbd;fill-opacity:1;stroke-width:129.368;stroke-linecap:square;stroke-linejoin:round;paint-order:stroke fill markers"
       d="M 664.5265,388.68701 394.03389,537.99452 664.5265,680.292 Z"
       sodipodi:nodetypes="cccc" /><path
       style="opacity:1;fill:#79694f;stroke-width:1.67359"
       inkscape:connector-curvature="0"
       id="path3596-7"
       d="M 261.41438,200.3199 664.5265,388.68701 394.03389,537.99452 Z"
       sodipodi:nodetypes="cccc" /><path
       id="rect988-1-5-4"
       style="opacity:1;fill:#664840;fill-opacity:1;stroke-width:129.368;stroke-linecap:square;stroke-linejoin:round;paint-order:stroke fill markers"
       d="M 261.41438,200.3199 63.23274,370.9019 394.03352,537.9937 Z" /><path
       id="path3586-6"
       style="opacity:1;fill:#40893f;stroke-width:1.67359"
       d="M -296.2179,200.31874 -296.21869,439.779 261.41502,200.31931 Z"
       sodipodi:nodetypes="cccc" /><path
       id="path3594-1"
       style="display:inline;opacity:1;fill:#f8ae1c;stroke-width:1.67359"
       d="M -296.21843,-279.1528 V 200.3179 L 55.85383,24.5015 Z" /><path
       style="display:inline;opacity:1;fill:#bec4bd;stroke-width:1.67359"
       inkscape:connector-curvature="0"
       id="path3588-0"
       d="M 664.5265,-279.45304 261.41502,200.31931 519.73551,71.756344 Z"
       sodipodi:nodetypes="cccc" /><path
       id="rect988-4-5"
       style="display:inline;opacity:1;fill:#11539c;fill-opacity:1;stroke-width:129.368;stroke-linecap:square;stroke-linejoin:round;paint-order:stroke fill markers"
       d="M 664.5265,-279.45304 519.73551,71.756344 664.52366,-0.24602184 Z"
       sodipodi:nodetypes="cccc" /><path
       style="display:inline;opacity:1;fill:#ec116d;stroke-width:1.67359"
       inkscape:connector-curvature="0"
       id="path3592-2"
       d="m 261.41502,200.31935 -557.63292,-6e-4 960.74441,-479.77175 z"
       sodipodi:nodetypes="cccc" /><path
       id="path3584-6-3"
       style="opacity:1;fill:#90c43a;stroke-width:1.67359"
       d="m 261.41502,200.31935 -557.63371,239.4597 v 240.513 z"
       sodipodi:nodetypes="cccc" /></g><g
     id="g629"
     transform="translate(-30.777902,-51.540137)"><path
       sodipodi:nodetypes="ssccssccccsssccssccssccccsss"
       inkscape:connector-curvature="0"
       id="path856"
       d="m 502.14174,-190.20548 c -7.12235,-2e-5 -9.87266,2.27956 -11.0018,9.11842 l -2.33346,15.03406 h 14.08626 l 1.12915,-7.03996 c 0.36591,-2.28135 1.81824,-3.34309 4.03401,-3.34309 h 20.2742 l -15.5562,93.525303 h 16.828 l 15.5562,-93.525303 h 19.86822 c 3.61141,0 11.33476,-0.009 13.9266,-0.0948 7.42584,-0.24631 7.30714,1.77024 8.21421,6.06768 l 16.37987,87.552597 h 19.7777 l 50.1406,-90.881747 c 1.48472,-2.69112 2.02578,-3.34309 4.8747,-3.34309 h 2.21579 l 2.15774,-13.06986 H 673.25 c -7.91364,0 -10.80396,1.62757 -14.592,8.81419 l -34.84619,66.10982 c -3.16926,5.77507 -6.70739,14.74126 -6.70739,14.74126 h -0.31634 c 0,0 -0.73581,-8.96619 -1.83992,-14.74126 l -10.31779,-66.10982 c -1.12105,-7.18295 -3.76793,-8.81419 -11.68156,-8.81419 -30.26902,-2e-5 -60.53805,-1.3e-4 -90.80707,-2.1e-4 z"
       style="font-style:normal;font-variant:normal;font-weight:normal;font-stretch:normal;font-size:medium;line-height:1.25;font-family:Museo;-inkscape-font-specification:Museo;letter-spacing:0px;word-spacing:0px;opacity:1;fill:#e61b33;fill-opacity:1;stroke:none;stroke-width:0.807771" /><g
       id="g619"><path
         id="rect71"
         style="opacity:1;fill:#005288;fill-opacity:1;fill-rule:evenodd;stroke-width:16.293;stroke-linejoin:round;paint-order:stroke fill markers"
         d="m 519.84375,89.933594 -34.89258,69.445316 -5.69922,-69.443363 h -38.38859 l -1.80273,10.833983 h 12.31242 l -16.46485,84.8457 h -12.3164 l -1.34766,8.09766 h 30.79303 l 1.34766,-8.09766 h -9.10358 l 15.64648,-80.63085 7.13527,88.72851 h 10.07372 L 520.25,104.97656 504.59961,185.61523 h -14.11523 l -1.34766,8.09766 h 45.89062 l 1.34766,-8.09766 h -12.10139 l 16.46679,-84.84765 h 14.09023 l 1.80273,-10.833986 z"
         transform="translate(-297.099,-279.453)"
         sodipodi:nodetypes="cccccccccccccccccccccccccc" /><path
         id="rect71-7"
         style="opacity:1;fill:#005288;fill-opacity:1;fill-rule:evenodd;stroke-width:18.0792;stroke-linejoin:round;paint-order:stroke fill markers"
         d="m 243.68236,89.935547 -1.80273,10.833983 h 12.12428 l -16.33985,84.19922 h -14.24804 l -1.45508,8.74414 h 45.59179 l 1.45508,-8.74414 h -12.67187 l 16.34179,-84.19922 h 15.3919 l 1.80274,-10.833983 z m 56.29001,0 -1.80274,10.833983 h 11.75029 l -43.55532,38.7168 26.7168,45.48242 h -9.27476 l -1.45508,8.74414 h 48.3839 l 1.45508,-8.74414 h -16.52382 l -31.52344,-48.85742 38.75125,-35.3418 h 12.46485 l 1.80273,-10.833983 z"
         transform="translate(-297.099,-279.453)"
         sodipodi:nodetypes="cccccccccccccccccccccccccccc" /><path
         id="rect71-7-9-0-99"
         style="opacity:1;fill:#005288;fill-opacity:1;fill-rule:evenodd;stroke-width:23.6004;stroke-linejoin:round;paint-order:stroke fill markers"
         d="m 609.75391,40.447266 -46.8086,0.0078 -1.89843,11.416016 h 12.98046 l -17.35351,89.404298 h -11.28125 l -1.41992,8.5332 h 43.82422 l 1.41992,-8.5332 h -12.86719 l 7.875,-40.57422 15.94336,-0.006 c 7.33201,-0.003 16.10429,0.29857 24.69726,-3.355468 8.59297,-3.65404 17.41917,-9.6116 19.56836,-23.166016 2.1492,-13.554415 -2.15678,-21.255408 -9.73828,-27.021484 -7.5815,-5.766076 -16.76424,-6.706289 -24.9414,-6.704926 z m -16.05274,11.423828 h 12.09961 c 5.35837,0 10.11804,0.978676 12.92383,3.759765 2.85234,2.827231 5.28436,7.040137 4.66797,14.222657 -0.64547,7.521316 -2.88303,12.025738 -7.68164,15.726562 -4.79865,3.700824 -8.48371,3.702029 -13.95117,3.703125 -5.46747,0.0011 -15.32227,0.0039 -15.32227,0.0039 z"
         transform="matrix(0.94903466,0,0,0.94903466,-266.3211,-227.91287)"
         sodipodi:nodetypes="sccccccccccssszscssssscc" /><path
         id="rect71-7-9-0-3"
         style="opacity:1;fill:#005288;fill-opacity:1;fill-rule:evenodd;stroke-width:22.3976;stroke-linejoin:round;paint-order:stroke fill markers"
         d="m 679.00781,89.933594 -60.1289,95.681636 h -10.91407 l -1.34765,8.09766 h 7.17383 8.60546 12.21094 l 1.34766,-8.09766 h -8.33985 l 15.65235,-24.28515 h 25.9043 l 0.33398,24.28515 h -13.75 l -1.34766,8.09766 h 15.20899 18.67383 12.30859 l 1.34766,-8.09766 h -13.72266 l -0.79297,-95.681636 z m -10.375,32.041016 0.44531,32.41016 h -21.33398 z"
         transform="translate(-297.099,-279.453)" /><path
         id="path402"
         style="opacity:1;fill:#005288;fill-opacity:1;fill-rule:evenodd;stroke-width:16.293;stroke-linejoin:round;paint-order:stroke fill markers"
         d="m 393.49969,88.878982 c -25.19905,1.603123 -48.85974,22.099598 -55.85516,50.242108 -6.99542,28.14251 5.18346,55.75088 32.30656,57.27149 27.1231,1.52061 55.29586,-24.2878 61.02934,-54.79278 5.55431,-29.55169 -12.28169,-54.323941 -37.48074,-52.720818 z m 1.11351,7.994027 c 17.79357,0.547056 17.78239,27.671871 13.48258,48.437341 -4.29981,20.76547 -17.17633,45.55147 -34.463,43.84012 -17.28668,-1.71136 -21.44828,-25.60111 -14.77547,-49.8498 6.67281,-24.24869 17.96233,-42.974718 35.75589,-42.427661 z"
         transform="translate(-297.099,-279.453)"
         sodipodi:nodetypes="zzzszzszzz" /><path
         id="path590"
         style="opacity:1;fill:#005288;fill-opacity:1;fill-rule:evenodd;stroke-width:73.9471;stroke-linejoin:round;paint-order:stroke fill markers"
         d="m 728.08398,95.898438 c -5.36583,5.255672 -9.1948,12.636782 -8.66601,25.392582 0.52879,12.7558 9.21626,21.104 23.18359,27.85156 13.96733,6.74756 23.05362,9.68449 21.6211,22.35351 -1.43252,12.66902 -15.44948,18.50932 -22.85743,17.95703 -7.40794,-0.55228 -12.71764,-4.10797 -17.4082,-9.87109 -4.69057,-5.76312 -5.91797,-14.93555 -5.91797,-14.93555 l -6.13476,0.002 -3.44141,29.06445 H 714.2 l 4.946,-6.23437 c 5.47139,4.78853 10.23551,8.10924 20.84814,8.85546 10.61263,0.74622 17.82414,-2.78275 23.27344,-6.99218 5.4493,-4.20944 11.79855,-10.54043 12.91211,-27.05664 1.11356,-16.51621 -10.36966,-26.82733 -22.63281,-32.54493 -12.26315,-5.7176 -22.60673,-9.2997 -21.09961,-19.10546 1.50712,-9.80576 7.77717,-13.031397 14.11328,-13.445317 6.33611,-0.41392 11.45236,1.380895 17.27734,7.359377 5.82498,5.97848 5.96289,14.45117 5.96289,14.45117 h 6.13672 l 5.64062,-29.066406 -6.13671,0.002 -4.02149,8.666013 c -3.32708,-3.863698 -9.14578,-9.5592 -19.33398,-10.417966 -10.1882,-0.858766 -18.63613,2.459084 -24.00196,7.714757 z"
         transform="translate(-297.099,-279.453)"
         sodipodi:nodetypes="zzzsssccccczszzzssccccczz" /></g></g></g></svg>
